<svg width="100" height="100" viewBox="0 0 100 100" fill="none" xmlns="http://www.w3.org/2000/svg">
<circle opacity="0.25" cx="50" cy="50" r="50" fill="white"/>
<circle cx="50" cy="50" r="35" fill="#0F2D52"/>
<path d="M37.1898 62.45C48.4898 54.6167 54.1398 48.1167 54.1398 42.95C54.1398 41.3833 53.7565 40.15 52.9898 39.25C52.2565 38.35 51.0898 37.9 49.4898 37.9C46.1898 37.9 44.4398 40.15 44.2398 44.65H37.3898C37.5898 40.4833 38.8565 37.3333 41.1898 35.2C43.5232 33.0333 46.4732 31.95 50.0398 31.95C53.6732 31.95 56.4565 32.9 58.3898 34.8C60.3565 36.6667 61.3398 39.1667 61.3398 42.3C61.3398 44.7667 60.6065 47.25 59.1398 49.75C57.7065 52.2167 55.8732 54.5 53.6398 56.6C51.4065 58.6667 49.0565 60.45 46.5898 61.95H62.0398V67.7H37.1898V62.45Z" fill="white"/>
</svg>
