<svg width="100" height="100" viewBox="0 0 100 100" fill="none" xmlns="http://www.w3.org/2000/svg">
<circle opacity="0.25" cx="50" cy="50" r="50" fill="white"/>
<circle cx="50" cy="50" r="35" fill="#0F2D52"/>
<path d="M49.5842 31.35C51.9842 31.35 54.0342 31.7667 55.7342 32.6C57.4675 33.4333 58.7675 34.5833 59.6342 36.05C60.5342 37.5167 60.9842 39.15 60.9842 40.95C60.9842 43.2167 60.3675 45.0833 59.1342 46.55C57.9008 47.9833 56.2675 48.8667 54.2342 49.2V49.45C59.1675 50.9167 61.6342 53.8167 61.6342 58.15C61.6342 61.1833 60.6175 63.65 58.5842 65.55C56.5508 67.4167 53.6842 68.35 49.9842 68.35C46.0508 68.35 42.9175 67.3833 40.5842 65.45C38.2508 63.4833 36.9508 60.5333 36.6842 56.6H43.5842C43.7508 58.4 44.3342 59.8333 45.3342 60.9C46.3675 61.9333 47.8175 62.45 49.6842 62.45C51.2842 62.45 52.5342 62.0167 53.4342 61.15C54.3342 60.25 54.7842 59.0833 54.7842 57.65C54.7842 55.95 54.1342 54.65 52.8342 53.75C51.5342 52.85 49.6175 52.4 47.0842 52.4H45.6342V46.65H47.0842C51.7508 46.7167 54.0842 45.1 54.0842 41.8C54.0842 40.3667 53.6675 39.25 52.8342 38.45C52.0008 37.6167 50.8675 37.2 49.4342 37.2C47.9342 37.2 46.7008 37.6833 45.7342 38.65C44.7675 39.5833 44.2175 40.9 44.0842 42.6H37.1842C37.3842 39 38.5508 36.2333 40.6842 34.3C42.8175 32.3333 45.7842 31.35 49.5842 31.35Z" fill="white"/>
</svg>
