<svg width="100" height="100" viewBox="0 0 100 100" fill="none" xmlns="http://www.w3.org/2000/svg">
<circle opacity="0.25" cx="50" cy="50" r="50" fill="white"/>
<circle cx="50" cy="50" r="35" fill="#0F2D52"/>
<path d="M61.2797 38.2H44.5297V47.1C45.2964 46.2 46.3464 45.4833 47.6797 44.95C49.0464 44.3833 50.5464 44.1 52.1797 44.1C54.613 44.1 56.6297 44.6333 58.2297 45.7C59.863 46.7333 61.063 48.1333 61.8297 49.9C62.6297 51.6333 63.0297 53.5667 63.0297 55.7C63.0297 59.4667 61.963 62.4833 59.8297 64.75C57.7297 67.0167 54.713 68.15 50.7797 68.15C48.213 68.15 45.9797 67.7 44.0797 66.8C42.1797 65.8667 40.6964 64.5833 39.6297 62.95C38.563 61.2833 37.9797 59.35 37.8797 57.15H44.7297C44.9964 58.65 45.613 59.85 46.5797 60.75C47.5464 61.6167 48.8297 62.05 50.4297 62.05C52.363 62.05 53.7964 61.4667 54.7297 60.3C55.6964 59.1 56.1797 57.5167 56.1797 55.55C56.1797 53.6833 55.6797 52.2333 54.6797 51.2C53.6797 50.1667 52.263 49.65 50.4297 49.65C49.0964 49.65 47.963 49.95 47.0297 50.55C46.0964 51.1167 45.413 51.8833 44.9797 52.85H38.1297V32H61.2797V38.2Z" fill="white"/>
</svg>
