<svg width="100" height="100" viewBox="0 0 100 100" fill="none" xmlns="http://www.w3.org/2000/svg">
<circle opacity="0.25" cx="50" cy="50" r="50" fill="white"/>
<circle cx="50" cy="50" r="35" fill="#0F2D52"/>
<path d="M54.925 42.3C54.3917 38.8333 52.625 37.1 49.625 37.1C47.2917 37.1 45.5917 38.1333 44.525 40.2C43.4583 42.2333 42.9917 45.4333 43.125 49.8C43.6583 48.2 44.6917 46.9333 46.225 46C47.7917 45.0333 49.6083 44.55 51.675 44.55C55.075 44.55 57.7417 45.5833 59.675 47.65C61.6417 49.6833 62.625 52.5833 62.625 56.35C62.625 58.6833 62.1583 60.75 61.225 62.55C60.2917 64.35 58.8917 65.7667 57.025 66.8C55.1917 67.8333 52.9583 68.35 50.325 68.35C45.1917 68.35 41.6583 66.7667 39.725 63.6C37.7917 60.4 36.825 56 36.825 50.4C36.825 43.9667 37.8583 39.2 39.925 36.1C42.025 33 45.4083 31.45 50.075 31.45C53.6417 31.45 56.375 32.4667 58.275 34.5C60.175 36.5333 61.2583 39.1333 61.525 42.3H54.925ZM43.725 55.85C43.725 57.7167 44.2583 59.2667 45.325 60.5C46.425 61.7 48.025 62.3 50.125 62.3C51.925 62.3 53.3583 61.7667 54.425 60.7C55.4917 59.6333 56.025 58.15 56.025 56.25C56.025 54.25 55.475 52.7167 54.375 51.65C53.3083 50.5833 51.8583 50.05 50.025 50.05C48.2917 50.05 46.8083 50.55 45.575 51.55C44.3417 52.55 43.725 53.9833 43.725 55.85Z" fill="white"/>
</svg>
