<svg width="982" height="976" viewBox="0 0 982 976" fill="none" xmlns="http://www.w3.org/2000/svg">
<path d="M3.05613 777.103C21.3929 767.937 39.7297 758.776 56.5383 746.555C84.0436 728.228 111.549 709.901 139.054 693.101C166.559 674.774 195.592 659.502 224.626 644.23C247.546 633.537 270.468 622.848 294.916 616.737C296.445 616.737 297.973 615.21 299.501 615.21L293.388 613.682C278.108 609.099 261.299 604.521 246.018 598.41C224.626 589.249 204.761 577.028 186.424 564.811C168.087 552.59 152.806 535.791 142.11 515.936C135.998 503.719 129.886 491.503 125.301 479.282C113.077 448.738 106.964 415.139 108.492 381.54C108.492 380.013 108.492 378.485 108.492 376.957L111.549 381.54C128.358 399.867 148.222 415.139 172.671 424.301L226.154 444.155L273.524 462.482C301.029 473.176 325.478 489.975 343.815 512.885L345.343 514.408C346.871 514.408 346.871 515.936 348.399 515.936C348.399 514.408 346.871 512.885 346.871 511.358C339.23 496.081 333.118 480.809 327.006 464.01C316.31 436.521 308.669 409.029 301.029 380.012L284.22 309.755C278.108 288.373 271.996 266.995 262.827 245.612C259.771 237.974 256.715 228.813 253.659 221.175C253.659 219.647 252.131 219.647 253.659 218.119L255.187 219.647L270.468 234.919C275.052 239.502 279.636 244.085 285.748 248.667C297.973 257.829 308.669 266.995 320.894 276.156L339.23 289.9C365.208 308.227 388.129 331.137 407.993 355.575C417.162 367.792 426.33 380.012 432.441 393.757C433.969 395.284 433.969 396.812 435.497 398.34L450.777 399.867L466.062 401.391C470.645 401.391 475.228 402.918 481.342 402.918L495.091 404.446C499.678 404.446 504.261 407.501 508.844 407.501C510.376 402.918 516.486 378.485 518.014 373.902L513.431 370.847C498.151 358.63 482.87 347.937 467.59 335.72C456.892 326.554 447.722 317.393 438.556 306.7C412.578 279.211 395.769 247.14 386.6 210.486C380.488 189.103 378.96 167.721 378.96 146.339C378.96 123.429 380.488 98.9927 385.072 76.084C388.129 57.7564 389.657 39.4294 391.185 21.1022L392.713 -1.80688L395.769 -55.2615L397.297 -52.2071L403.409 -39.9887C411.05 -24.716 420.218 -10.9705 429.386 4.30185C440.084 19.5746 453.837 34.8474 469.117 47.0657C479.811 54.7021 488.981 63.8656 498.151 73.0292C521.069 94.4111 540.937 117.32 557.745 143.283C569.97 161.61 579.136 178.41 589.834 198.265C600.531 218.119 609.697 239.502 617.339 259.356L626.505 283.794C629.565 291.428 631.092 297.538 632.62 305.176C635.675 314.338 637.203 323.504 640.258 334.193C641.786 346.409 643.318 358.63 644.845 370.847C644.845 372.374 644.845 372.374 646.373 373.902C649.428 372.374 652.483 370.847 655.539 369.319C658.598 367.792 663.181 367.792 666.236 366.264C666.236 364.736 666.236 363.209 666.236 363.209L661.653 347.937C660.126 340.303 660.126 331.137 658.598 323.504C657.066 300.594 657.066 276.156 658.598 251.718C658.598 250.191 658.598 248.668 658.598 245.612C657.066 244.085 654.011 241.029 652.483 239.502C641.786 225.757 632.62 212.009 626.505 196.737C618.867 176.882 612.752 155.5 606.642 134.122C603.587 123.429 602.059 112.738 602.059 102.047C600.531 83.7199 600.531 65.3928 602.059 48.5929C605.114 21.1022 611.225 -4.86169 620.395 -30.8252C624.978 -43.0431 631.092 -55.2615 635.675 -67.4798C643.318 -84.2798 650.956 -102.607 658.598 -119.407L669.292 -143.843C679.989 -166.752 687.632 -189.661 695.27 -212.57C699.852 -229.37 705.967 -247.698 713.605 -264.497C713.605 -266.025 715.133 -267.552 715.133 -269.079C719.72 -281.298 722.775 -295.043 724.303 -307.261C724.303 -307.261 724.303 -307.261 725.831 -308.788C728.886 -307.261 730.414 -304.207 733.473 -301.152C748.754 -282.825 762.506 -262.97 776.259 -241.589C777.787 -240.061 779.315 -237.007 779.315 -235.48C782.37 -227.843 786.953 -220.207 790.008 -212.57C800.706 -185.079 806.82 -156.061 809.876 -127.043C812.931 -99.5525 812.931 -72.0614 812.931 -43.0435C811.403 -23.1888 809.876 -3.33408 806.82 14.993C800.706 50.1201 791.54 83.7199 780.842 117.32C771.672 143.283 759.447 167.721 745.694 192.158C739.584 201.32 733.473 208.958 727.358 216.592C721.248 224.23 712.078 231.864 704.44 236.447C699.852 239.502 693.742 242.557 687.632 244.085C687.632 244.085 686.1 244.085 686.1 245.612C686.1 247.14 686.1 248.667 686.1 250.191V271.573C686.1 282.266 687.632 294.483 689.159 305.176L693.742 337.248L696.797 358.63C696.797 360.158 696.797 361.685 698.325 361.685C698.325 361.685 698.325 361.685 698.325 360.158L699.853 355.575C704.44 332.665 712.078 309.755 719.72 288.373C725.831 270.046 736.528 253.246 747.226 237.974C767.089 210.486 786.953 182.993 809.876 158.555C815.986 152.449 820.573 146.339 826.684 140.228L843.492 120.375C863.355 95.9383 881.695 68.4477 895.448 39.4294C895.448 37.9022 896.976 37.9022 896.976 36.375C903.086 24.1566 909.201 11.9382 913.784 -0.279694C913.784 -1.80688 915.312 -3.3345 915.312 -3.3345C915.312 -0.279724 916.839 1.2475 916.839 2.77469L921.422 31.793C922.95 44.0109 926.009 57.7565 926.009 69.9748C926.009 74.5564 926.009 79.1384 926.009 83.7199C926.009 91.3563 926.009 98.9927 926.009 106.629C926.009 117.32 924.482 128.011 922.95 140.228C919.894 163.138 915.312 186.048 910.729 208.958C903.086 241.029 890.861 270.046 872.525 297.538C857.245 321.976 840.437 344.882 820.573 366.264C808.348 381.54 793.068 395.284 777.787 407.501C767.089 415.139 756.392 422.773 744.166 427.356C738.056 430.411 731.945 431.939 724.303 434.994C719.72 436.521 715.133 438.049 712.078 439.572C710.55 439.572 710.55 439.572 709.023 441.1C710.55 453.321 721.248 489.975 725.831 497.609L727.358 494.558C728.886 489.975 731.945 485.392 733.473 480.809C739.584 470.12 747.226 460.955 754.864 451.793L790.008 418.194C790.008 419.718 790.008 419.718 790.008 421.245C788.48 424.301 786.953 427.356 785.425 428.883L770.145 451.793C765.562 459.427 760.974 467.065 756.392 476.227L747.226 496.081C747.226 496.081 745.694 497.609 747.226 497.609L751.809 493.03C765.562 479.282 779.315 465.538 796.123 454.849C797.65 453.321 799.178 451.793 799.178 450.266C799.178 448.738 799.178 448.738 800.706 447.211C808.348 419.718 822.101 395.284 838.909 372.374L852.662 354.047C858.772 346.409 863.355 340.303 869.47 334.193L884.751 317.393L906.142 292.955C916.839 282.266 926.009 271.573 933.647 259.356C941.29 248.667 948.928 239.502 956.57 230.336C964.208 221.175 971.851 210.486 977.961 199.792C977.961 198.265 979.489 198.265 979.489 196.737H981.016C981.016 198.265 981.016 199.792 981.016 201.32L982.544 231.864C984.076 247.14 985.604 260.884 988.659 276.156C990.186 280.739 990.187 285.322 991.714 289.9L997.829 335.72C999.357 349.464 1000.88 363.209 1002.41 376.957C1003.94 393.757 1003.94 412.084 1002.41 428.883C1000.88 448.738 997.825 468.593 993.242 488.448C985.604 525.102 971.851 560.228 950.455 590.772C938.23 609.099 924.482 625.903 907.669 639.647L896.976 648.809C895.448 650.336 895.448 650.336 893.916 651.864C893.916 653.392 895.448 654.919 896.976 656.447L910.729 673.246C913.784 676.302 916.839 679.357 918.367 682.412C930.592 699.212 939.762 717.539 945.873 737.393C951.983 757.248 955.043 778.626 953.515 800.009C953.515 801.536 953.515 801.536 953.515 803.064C955.043 804.592 956.57 804.591 958.098 806.119L974.906 816.808L976.434 818.336V853.467H974.906C973.378 851.939 971.851 850.411 968.796 850.411L950.455 836.663C948.928 836.663 948.928 835.139 947.4 835.139C939.762 854.99 941.29 851.939 929.064 865.683L933.647 870.266L955.043 893.172C961.153 900.81 967.264 908.448 974.906 914.554L976.434 916.082V975.646C973.378 972.591 970.323 968.008 967.264 964.957C964.208 960.374 961.153 957.319 958.098 952.736L948.928 940.519L939.762 928.303L930.592 917.609L921.422 905.393C918.367 902.337 915.312 897.755 910.729 894.699C909.201 896.227 907.669 897.755 907.669 897.755C896.976 908.448 884.75 917.609 870.998 923.72C854.19 931.354 835.854 938.992 819.041 945.102C794.595 954.264 770.145 958.847 745.694 961.902C731.945 963.429 718.193 963.429 702.912 961.902C696.797 961.902 692.214 960.374 686.1 960.374C669.291 957.319 652.483 952.736 637.203 948.157C620.395 943.575 603.587 937.464 586.778 932.881C577.608 931.354 568.438 928.303 559.273 928.303C557.745 928.303 557.745 928.303 556.217 926.775L559.273 925.248C563.855 922.192 569.97 919.137 574.553 916.082L600.531 899.282C611.225 893.172 620.395 885.538 629.565 879.428C634.148 876.372 638.73 871.794 643.318 868.739L670.819 850.411C683.044 842.773 695.27 836.663 707.495 832.084C715.133 829.029 724.303 825.974 731.945 824.446C741.111 821.391 748.754 819.863 757.919 819.863C774.727 818.336 793.068 818.336 809.876 821.391C820.573 822.919 829.739 824.446 840.437 827.501C841.964 827.501 841.964 829.029 843.492 827.501C841.964 827.501 841.964 825.974 840.437 825.974L803.761 801.536C799.178 798.481 794.595 796.958 790.008 795.43C771.672 789.32 751.809 784.737 731.945 780.154C713.605 777.103 696.797 775.575 678.462 780.154C678.462 780.154 678.461 780.154 676.934 780.154C678.461 778.631 679.989 778.626 681.517 778.626C692.214 774.048 704.44 770.993 716.661 769.465C724.303 769.465 730.414 769.465 738.056 767.937C739.584 767.937 739.583 767.937 741.111 766.41C739.583 766.41 739.584 764.882 738.056 764.882C722.775 755.721 707.495 748.082 692.214 740.449C687.632 738.921 683.044 737.393 678.462 735.866C676.934 737.393 676.934 737.393 675.406 737.393C664.709 746.555 654.011 755.721 644.845 766.41C640.258 772.52 635.675 777.103 629.565 783.209C621.922 790.847 615.812 798.481 611.225 807.647C597.472 829.029 580.664 848.884 560.8 867.211C548.575 877.9 536.35 887.066 521.069 893.172C498.151 903.865 473.7 911.499 449.25 917.609C429.386 922.192 409.522 923.72 389.657 922.192C369.792 920.665 348.399 917.609 328.534 913.027C305.613 908.448 284.22 902.337 262.827 894.699C253.659 891.649 242.962 888.593 233.794 885.538C215.457 879.428 198.648 871.794 180.312 868.739C178.784 868.739 178.784 868.738 178.784 867.211C184.896 864.156 191.008 859.573 197.12 856.518C204.761 851.939 213.929 847.356 221.57 842.773C224.626 841.246 227.682 838.19 230.738 836.663C242.962 829.029 256.715 819.863 267.411 810.702C284.22 798.481 299.501 784.737 314.781 770.992C327.006 760.299 339.23 749.61 352.983 740.449C371.32 726.7 391.185 716.011 414.106 708.373C441.611 697.684 470.645 690.046 499.678 685.463C508.844 683.94 516.486 682.412 525.656 682.412C527.184 682.412 528.712 682.412 530.239 680.884V679.357C528.712 677.829 528.712 677.829 527.184 677.829C524.124 676.302 522.597 674.774 519.542 671.719C516.486 667.136 513.431 667.136 508.844 667.136C504.261 667.136 499.678 667.136 493.563 668.664C490.508 668.664 487.453 668.664 484.398 668.664C470.645 668.664 455.364 670.191 441.611 673.246C432.441 674.774 423.274 677.829 414.106 679.357C411.05 679.357 409.522 680.884 404.937 680.884L412.578 676.302L418.69 673.246L424.802 670.191C426.33 668.664 429.386 668.664 432.441 667.136L440.084 664.085L447.722 661.03L455.364 657.975C458.42 656.447 459.947 656.447 463.002 654.919L469.117 653.392L476.755 651.864C479.811 650.336 481.343 650.336 484.398 648.809L482.87 647.281L461.475 639.647C459.947 639.647 456.892 638.12 455.364 639.647C447.722 639.647 441.611 641.175 433.969 644.23L404.937 653.392C391.185 657.975 394.241 656.447 382.016 665.608C359.095 683.94 334.646 700.739 311.725 717.539C302.557 723.645 293.388 731.283 282.692 735.866C262.827 748.082 241.434 758.776 221.57 767.937C207.817 774.048 192.536 780.154 178.784 784.737C152.806 792.375 125.301 796.958 97.7961 798.481C80.9875 800.009 64.1786 798.481 48.898 793.902C32.0894 789.32 16.8087 783.209 1.52806 778.626C1.52806 778.626 0 778.626 0 777.103C0 778.626 1.52806 777.103 3.05613 777.103ZM802.233 193.682C800.706 196.737 797.65 198.265 796.123 201.32L762.506 247.14C760.975 250.191 759.447 253.246 759.447 256.301C759.447 271.573 759.447 286.845 760.975 303.649C760.975 303.649 760.975 303.649 760.975 305.176C762.506 305.176 762.506 305.176 762.506 303.649L770.145 289.9L786.953 259.356C788.48 256.301 788.48 254.774 790.008 251.718C790.008 248.667 790.008 247.14 790.008 244.085C790.008 236.447 791.54 228.813 794.595 221.175C797.65 213.537 799.178 205.903 802.233 199.792L803.761 193.682C803.761 192.159 802.233 192.159 802.233 193.682ZM724.303 413.612C741.111 407.501 756.392 399.867 770.145 387.646C782.37 376.957 793.068 366.264 803.761 355.575C823.628 334.193 840.437 309.755 855.717 285.322C872.525 259.356 883.223 231.864 890.861 202.848C895.448 182.993 900.031 161.61 903.086 141.756C904.614 131.067 904.614 118.847 906.142 108.157C907.669 92.8839 907.669 76.084 907.669 60.8112C907.669 59.2836 907.669 57.7564 907.669 57.7564C906.141 57.7564 906.142 59.2837 904.614 59.2837L892.389 80.6656C877.108 105.102 858.772 129.539 838.909 150.921L820.573 172.304C817.514 175.355 815.986 178.41 815.986 181.465L808.348 218.119C808.348 219.647 808.348 222.702 806.82 224.23H808.348C809.876 222.702 809.876 222.702 811.403 221.175C822.101 207.43 832.794 193.682 843.492 179.938C845.019 178.41 846.547 176.882 846.547 175.355C848.075 173.827 848.075 172.304 849.602 169.249C849.602 172.304 849.602 173.827 848.075 175.355C846.547 178.41 845.019 181.465 843.492 184.52C834.322 204.375 823.629 225.758 814.458 245.612V247.14C814.458 248.667 815.986 247.14 817.514 247.14C838.909 237.974 857.245 225.757 872.525 208.958C874.053 207.43 875.581 204.375 878.636 202.848V204.375C869.47 218.119 860.3 230.336 849.602 241.029C843.492 247.14 837.381 251.718 831.267 256.301C823.628 262.412 814.458 265.467 805.288 266.995C805.288 266.995 803.761 266.995 802.233 266.995L774.727 317.393C774.727 318.921 776.259 318.921 777.787 317.393C782.37 315.865 786.953 312.81 791.54 311.283C802.233 306.7 811.403 300.594 820.573 292.955C826.684 288.373 832.794 283.794 837.381 277.684C838.909 279.211 837.381 279.211 837.381 279.211C832.794 286.849 828.211 294.483 822.101 300.594C815.986 306.7 809.876 312.81 802.233 318.921C797.65 321.976 794.595 325.027 790.008 328.082C783.897 332.665 776.259 334.193 768.617 335.72H767.089C765.562 335.72 762.506 337.248 762.506 338.775L754.864 352.52C745.694 369.319 736.528 384.591 727.358 401.391C725.831 404.446 724.303 407.501 722.775 412.084C722.775 413.612 724.303 413.612 724.303 413.612ZM713.605 387.646L727.358 363.209L745.694 331.137C747.226 328.082 747.226 326.554 747.226 323.504C745.694 308.227 747.226 291.428 750.281 276.156L751.809 266.995C751.809 265.467 751.809 265.467 751.809 263.939C750.281 263.939 750.281 265.467 748.754 266.995C744.166 276.156 739.583 285.322 735.001 296.011C725.831 321.976 718.193 347.937 713.605 373.902C712.078 378.485 712.078 383.063 710.55 387.646C710.55 389.174 710.55 389.174 710.55 390.702C712.078 389.174 713.605 387.646 713.605 387.646ZM255.187 580.083C270.468 586.194 287.276 592.3 302.557 595.355C317.838 598.41 333.118 599.938 346.871 601.466V599.938C345.343 599.938 343.815 598.41 342.287 598.41C331.59 595.355 319.366 592.3 308.669 586.194L293.388 578.556C291.86 577.028 290.332 577.028 287.276 577.028C276.58 578.556 267.411 577.028 256.715 577.028C256.715 578.556 255.187 578.556 255.187 580.083C255.187 580.083 253.659 580.083 255.187 580.083ZM180.312 535.791C183.368 538.846 187.952 541.901 191.008 544.957C204.761 554.118 218.513 561.756 232.266 569.394C235.322 570.917 239.906 572.445 242.962 570.917L264.355 567.867C265.883 567.867 265.883 567.867 267.411 567.867C267.411 566.339 265.883 566.339 265.883 566.339C255.187 560.228 242.962 554.118 233.794 546.484C232.266 544.957 230.738 544.957 229.21 544.957C221.57 544.957 213.929 543.429 207.817 540.374C200.176 537.319 192.536 534.263 184.896 531.212C181.84 529.685 178.784 528.157 175.728 526.629C174.2 526.629 172.671 525.102 172.671 525.102C174.2 529.685 177.256 532.74 180.312 535.791ZM320.894 517.464C307.141 503.72 290.332 491.503 273.524 483.865C262.827 479.282 250.603 474.703 239.906 470.12L178.784 445.683C172.671 442.628 166.559 441.1 160.447 438.049C148.222 431.939 137.526 424.301 128.358 413.612C126.83 412.084 126.829 410.556 125.301 410.556C123.773 412.084 123.773 413.612 123.773 413.612C126.83 434.994 132.942 456.376 140.582 476.227C145.166 488.448 151.278 500.664 158.919 511.358C160.447 514.408 163.503 517.464 166.559 518.991C177.256 525.102 187.952 528.157 200.176 529.685C203.232 529.685 207.817 531.212 210.873 531.212C210.873 529.685 209.345 528.157 209.345 528.157C195.592 512.885 183.368 496.081 172.671 479.282C171.143 476.227 169.615 473.176 168.087 471.648C169.615 471.648 169.615 471.648 169.615 471.648C171.143 474.703 174.2 477.754 175.728 479.282C187.952 493.03 201.704 503.719 215.457 514.408C216.985 515.936 218.513 515.936 218.513 517.464C218.513 517.464 218.513 517.464 220.041 517.464C221.57 515.936 220.041 514.408 220.041 512.885C216.985 499.137 212.401 485.392 206.289 473.176C206.289 471.648 204.761 470.121 204.761 468.593C206.289 468.593 206.289 470.12 206.289 470.12C216.985 483.865 224.626 499.137 232.266 514.408C233.794 517.464 235.322 522.047 235.322 525.102C235.322 526.629 236.85 529.685 238.378 529.685C247.546 535.791 256.715 541.901 267.411 548.012L279.636 554.118C281.164 554.118 281.164 554.118 282.692 555.646V554.118L276.58 523.574C273.524 514.409 270.468 505.247 265.883 496.081C264.355 494.558 264.355 493.03 264.355 491.503C264.355 491.503 265.883 491.503 265.883 493.03C279.636 509.83 288.804 528.157 294.916 548.012C296.445 552.59 297.973 557.173 297.973 561.756C297.973 563.284 299.501 564.811 301.029 566.339C313.253 572.445 323.95 577.028 336.174 581.611L362.151 590.772C363.68 590.772 365.208 590.772 365.208 592.3C366.736 590.772 365.208 589.249 365.208 587.721C362.152 580.083 359.095 572.445 354.511 564.811C345.343 546.484 334.646 531.212 320.894 517.464ZM346.871 468.593C352.983 482.337 357.567 497.609 365.208 511.358C366.736 514.408 368.264 517.464 371.32 518.991L383.544 526.629C383.544 526.629 385.072 526.629 385.072 528.157C386.6 526.629 385.072 525.102 385.072 523.574L378.96 500.664C378.96 497.609 377.432 496.081 374.376 493.03C368.264 488.448 363.68 482.337 357.567 477.754C354.511 474.703 351.455 471.648 348.399 468.593L346.871 467.065V468.593ZM380.488 535.791C380.488 537.318 380.488 537.319 380.488 538.846C386.601 549.539 392.713 560.228 400.353 570.917C400.353 572.445 401.881 572.445 401.881 573.973L400.353 570.917L392.713 549.539C392.713 548.012 391.185 544.957 388.129 543.429C386.601 541.901 383.544 540.374 380.488 535.791ZM623.45 383.063C620.395 369.319 618.867 355.575 615.812 341.831C612.752 318.921 606.642 296.011 599.004 274.628C583.719 234.919 565.383 195.209 542.465 160.083C527.184 135.65 507.316 112.738 487.453 92.8839C478.283 83.72 469.117 76.084 458.42 66.92C452.309 62.3385 447.722 57.7564 441.611 53.1749C430.914 42.4837 421.746 31.793 412.578 18.0474C411.05 16.5202 411.05 14.993 409.522 13.4659C407.993 13.4659 407.993 14.993 407.993 16.5202C407.993 27.211 406.465 37.9021 406.465 50.1201C404.937 59.2836 403.409 68.4476 403.409 79.1384C400.353 103.575 397.297 129.539 397.297 155.5C397.297 192.159 406.465 227.285 423.274 259.356C430.914 274.628 441.611 288.373 453.837 300.594C463.002 309.755 472.172 318.921 482.87 328.082L521.069 357.103C522.597 357.103 522.597 358.63 524.124 358.63C525.656 355.575 525.656 352.52 527.184 349.464C527.184 346.409 528.712 343.358 528.712 340.303C527.184 338.775 524.124 337.248 522.597 335.72C518.014 331.137 511.904 328.082 507.316 323.504L472.172 289.9C469.117 286.849 466.062 283.794 463.002 280.739H464.53C475.228 286.845 484.398 294.483 495.091 300.594L513.431 312.81C518.014 315.865 524.124 318.921 528.712 321.976C528.712 321.976 530.239 321.976 531.767 323.504C531.767 323.504 533.294 321.976 533.294 320.448C533.294 317.393 534.822 314.338 534.822 311.283C534.822 309.755 534.822 306.7 533.294 305.176L513.431 277.684L493.563 247.14C492.036 245.612 490.508 244.085 488.981 242.557C485.925 241.029 482.87 239.502 479.811 236.447C473.7 233.391 469.117 228.813 464.53 224.23C449.25 207.43 435.497 190.631 424.802 170.776C423.274 167.721 421.746 164.666 420.218 161.61C430.914 175.355 443.139 187.576 455.364 198.265C461.475 204.375 469.117 208.958 475.228 215.064C475.228 215.064 476.755 215.064 476.755 216.592V215.064C475.228 212.009 473.7 208.958 472.172 205.903C464.53 190.631 458.42 175.355 452.309 160.083C447.722 149.394 446.194 138.7 444.667 128.011C441.611 111.211 438.556 94.4111 433.969 79.1384L432.441 71.502C433.969 73.0292 435.497 74.5564 435.497 76.084L447.722 103.575L466.062 146.339C467.59 149.394 467.59 152.449 469.117 155.5C475.228 170.776 479.811 186.048 487.453 201.32C488.981 204.375 490.508 207.43 492.036 210.486C492.036 212.009 493.563 212.009 493.563 213.537C493.563 212.009 493.563 210.486 493.563 208.958L492.036 187.576L487.453 149.394C485.925 143.283 484.398 134.122 482.87 128.011C482.87 128.011 484.398 131.067 484.398 132.594C485.925 138.7 488.981 144.811 490.508 150.921L504.261 198.265C505.789 205.903 507.316 213.537 507.316 221.175V233.391C507.316 234.919 507.316 236.447 508.844 237.974C516.486 250.191 525.656 263.939 533.294 276.156L534.822 277.684C534.822 277.684 534.822 276.156 536.35 276.156L537.877 265.467C537.877 263.939 537.877 263.939 539.405 262.412C539.405 263.939 539.405 265.467 540.937 266.995L545.52 288.373C545.52 289.9 547.047 291.428 547.047 292.955C550.103 297.538 553.158 300.594 556.217 305.176C556.217 305.176 556.217 305.176 557.745 305.176C557.745 303.649 557.745 303.649 557.745 302.121C557.745 300.594 557.745 297.538 556.217 296.011L551.63 263.939C548.575 245.612 542.465 227.285 536.35 208.958C536.35 207.43 534.822 207.43 534.822 205.903C536.35 205.903 536.35 207.43 537.877 207.43L545.52 222.702C554.69 241.029 563.856 257.829 568.438 277.684C571.498 291.428 574.553 305.176 571.498 320.448C571.498 323.504 571.498 326.554 573.026 328.082C586.778 346.409 600.531 363.209 617.339 380.012C618.867 381.536 620.395 383.063 621.922 384.591C623.45 384.591 623.45 383.063 623.45 383.063ZM641.786 473.176C634.148 448.738 624.978 427.356 611.225 405.973C602.059 392.229 592.889 380.012 582.191 367.792L565.383 349.464C557.745 341.831 551.63 332.665 547.047 323.504C547.047 323.504 547.047 321.976 545.52 321.976L543.992 320.448C542.465 320.448 542.465 321.976 542.465 321.976C542.465 323.504 542.465 325.027 542.465 326.554C542.465 344.882 539.405 363.209 534.822 380.012L522.597 428.883C513.431 470.12 513.431 511.358 521.069 552.59C522.597 561.756 525.656 570.918 530.239 580.083C539.405 596.883 550.103 613.682 563.856 627.426L586.778 651.864C592.889 657.975 597.472 662.557 605.114 667.136C606.642 668.664 608.169 670.191 611.225 670.191V668.664C600.531 650.336 594.417 628.954 585.251 609.099C585.251 607.576 583.719 607.576 583.719 606.048C583.719 604.521 582.191 602.993 580.664 601.466C562.328 589.249 550.103 572.445 539.405 552.59C534.822 543.429 533.294 532.74 531.767 522.047V520.519V518.991C534.822 531.212 539.405 541.901 547.047 551.067C551.63 557.173 557.745 563.284 563.856 567.867C566.911 570.917 569.97 572.445 573.026 575.5C574.553 575.5 574.553 573.973 574.553 573.973C569.97 557.173 566.911 541.901 563.856 525.102C563.856 523.574 562.328 522.047 562.328 520.519C553.158 509.83 547.047 499.137 543.992 485.392C540.937 474.703 537.877 462.482 537.877 451.793C537.877 448.738 537.877 447.21 537.877 444.155C542.465 462.482 550.103 479.282 559.273 494.558C560.8 494.558 560.8 493.03 560.8 491.503V462.482C560.8 450.266 562.328 438.049 562.328 425.828C562.328 422.773 562.328 419.718 562.328 418.194C562.328 416.667 562.328 416.667 562.328 415.139H563.856C563.856 416.667 563.855 419.718 565.383 421.245L566.911 441.1C568.438 456.376 571.498 471.648 574.553 486.92C574.553 488.448 574.553 488.448 576.081 488.448L577.608 486.92C585.251 471.648 594.417 457.9 600.531 441.1C602.059 436.522 603.587 431.939 605.114 427.356L606.642 425.828C606.642 433.466 605.114 442.628 602.059 450.266C597.472 467.065 592.889 483.865 586.778 500.664C585.251 505.247 583.719 508.302 580.664 511.358C579.136 515.936 579.136 517.464 579.136 518.991C582.191 534.263 585.251 549.539 589.834 564.811C589.834 566.339 591.361 567.867 591.361 569.394L592.889 567.867L609.697 540.374C618.867 525.102 624.978 509.83 629.565 493.03C629.565 491.503 629.565 489.975 631.092 489.975C631.092 489.975 631.092 489.975 632.62 488.448C632.62 489.975 632.62 491.503 632.62 493.03C631.092 509.83 628.033 528.157 623.45 544.957C621.922 551.067 618.867 558.701 615.812 564.811C612.752 572.445 608.169 580.083 602.059 584.666C600.531 584.666 600.531 586.194 599.004 586.194C599.004 586.194 599.004 587.721 597.472 587.721C602.059 599.938 606.642 612.155 611.225 624.376C615.812 636.592 620.395 648.809 624.978 662.557C624.978 661.03 626.505 659.502 626.505 656.447C629.565 642.703 632.62 628.954 635.675 615.21C637.203 607.576 638.73 598.41 640.258 589.249C641.786 577.028 644.845 566.339 646.373 554.118C649.428 535.791 649.428 515.936 646.373 496.081C646.373 488.448 644.845 480.809 641.786 473.176ZM536.35 661.03C537.877 668.664 543.992 673.246 551.63 673.246C556.217 673.246 559.273 671.719 562.328 668.664C565.383 665.608 565.383 661.03 563.856 656.447C563.856 654.919 562.328 653.392 562.328 651.864C559.273 645.758 553.158 642.703 545.52 645.758C537.877 647.281 534.822 653.392 536.35 661.03ZM603.587 700.739C606.642 703.79 609.697 705.318 612.752 706.845C614.284 706.845 614.284 708.373 615.812 706.845C620.395 706.845 624.978 705.318 629.565 705.318C629.565 705.318 631.092 705.318 631.092 703.79C626.505 702.267 612.752 700.739 603.587 700.739ZM647.901 665.608C650.956 668.664 654.011 670.191 660.126 670.191C667.764 670.191 672.347 662.557 667.764 654.919C666.236 651.864 663.181 648.809 660.126 648.809C655.539 647.281 650.956 648.809 647.901 651.864C646.373 657.975 646.373 662.557 647.901 665.608ZM654.011 393.757C647.901 396.812 644.845 404.446 647.901 410.556C650.956 418.194 655.539 421.245 664.709 421.245C667.764 421.245 672.347 419.718 673.879 416.667C676.934 413.611 676.934 409.029 675.406 405.973C673.879 401.391 670.819 396.812 666.236 393.757C663.181 390.702 658.598 390.702 654.011 393.757ZM693.742 -73.5886C693.742 -75.1162 695.27 -76.6434 695.27 -78.1706C693.742 -55.2615 692.214 -32.3524 692.214 -9.44324C693.742 -9.44324 693.742 -10.9705 693.742 -10.9705C699.852 -38.4616 707.495 -65.9522 713.605 -93.4433C716.661 -104.134 719.72 -113.298 724.303 -123.989C728.886 -137.734 733.473 -149.952 739.584 -162.171C741.111 -165.225 745.694 -172.861 747.226 -172.861C747.226 -172.861 742.639 -151.48 742.639 -146.898C741.111 -134.68 739.584 -120.934 736.528 -108.716C735.001 -102.607 735.001 -96.4977 731.945 -88.8613C725.831 -62.8979 718.193 -36.9344 712.078 -10.9705C710.55 -3.33453 709.023 4.30185 707.495 11.9382V13.4659L709.023 11.9382L730.414 -27.7708C738.056 -41.5159 744.166 -56.7887 747.226 -72.0614L748.754 -75.1162C748.754 -72.0614 748.754 -70.5342 748.754 -67.4798C745.694 -43.0435 739.584 -20.1345 730.414 1.24747C730.414 2.77466 728.886 4.30185 727.358 7.35666C721.248 21.1022 713.605 34.8474 705.967 47.0657C704.44 48.5929 702.912 51.6473 701.38 53.1749C699.852 54.7021 698.325 57.7564 698.325 60.8112C695.27 76.084 693.742 91.3563 693.742 106.629L692.214 123.429C692.214 124.956 692.214 124.956 692.214 126.484C693.742 126.484 693.742 124.956 693.742 124.956C699.852 111.211 707.495 97.4655 712.078 83.7199C716.661 73.0292 721.248 63.8656 725.831 53.1749C731.945 39.4293 738.056 25.6838 742.639 10.411C744.166 7.35666 744.166 4.30188 747.226 2.77469V4.30185L741.111 33.3202L731.945 76.084C730.414 83.7199 727.358 91.3563 724.303 98.9927C718.193 114.265 710.55 131.067 701.38 144.811C698.325 147.866 696.797 152.449 693.742 155.5C692.214 157.028 692.214 158.555 690.687 161.61L687.632 196.737L686.1 221.175C686.1 222.702 686.1 224.23 686.1 225.757C687.632 225.757 687.632 225.757 689.159 225.757C707.495 212.009 722.775 193.682 735.001 173.827C745.694 155.5 756.392 135.65 762.506 114.265C771.672 83.7199 780.842 53.1749 786.953 22.6294L793.068 -9.44324C794.595 -20.1344 796.123 -32.3524 796.123 -43.0435C797.65 -69.007 796.123 -93.4433 794.595 -119.407C791.54 -146.898 786.953 -174.389 777.787 -200.352C774.727 -207.988 771.672 -215.625 767.089 -224.788L760.975 -241.589L751.809 -266.025C747.226 -276.716 736.528 -298.098 735.001 -299.625C733.473 -298.098 731.945 -262.97 728.886 -246.17C728.886 -244.643 727.358 -241.589 727.358 -240.061L709.023 -180.498C705.967 -169.807 701.38 -157.589 696.797 -146.898C690.687 -130.098 683.044 -114.825 676.934 -99.5525L655.539 -59.8435L638.73 -21.6617C631.092 -0.279724 624.978 21.1022 621.922 44.0109C620.395 60.8113 618.867 77.6112 620.395 95.9383C620.395 108.157 623.45 118.847 624.978 129.539C629.565 149.394 635.675 170.776 643.318 189.103C646.373 198.265 650.956 207.43 655.539 216.592C655.539 218.119 657.066 218.119 657.066 219.647C658.598 219.647 658.598 218.119 658.598 216.592C658.598 210.486 660.126 204.375 661.653 198.265C661.653 196.737 661.653 196.737 661.653 195.209L663.181 167.721C663.181 164.666 663.181 161.61 661.653 158.555C657.066 147.866 655.539 135.645 654.011 124.956L649.428 89.8291C649.428 83.7199 647.901 79.1384 647.901 73.0292C647.901 57.7564 649.428 42.4837 649.428 27.211C649.428 18.0474 650.956 8.88385 654.011 -0.279694C654.011 -1.80688 655.539 -3.3345 655.539 -4.86169C657.066 -3.3345 655.539 -1.80688 655.539 -0.279694C654.011 11.9382 654.011 24.1566 655.539 36.375L661.653 86.7747C663.181 97.4655 664.709 106.629 666.236 117.32C666.236 118.847 666.236 118.847 667.764 120.375C669.291 117.32 669.292 115.793 669.292 114.265L672.347 82.1928C673.879 73.0292 675.406 65.3928 675.406 56.2293C675.406 53.1749 675.406 50.1201 675.406 48.5929C672.347 24.1566 673.879 -0.279694 678.462 -24.716C686.1 -39.9887 689.159 -56.7887 693.742 -73.5886ZM686.1 431.939C684.572 430.411 684.572 428.883 683.044 427.356C681.517 425.828 679.989 425.828 678.462 427.356C676.934 428.883 676.934 430.411 676.934 431.939C676.934 434.994 679.989 436.522 681.517 438.049C683.044 438.049 684.572 436.521 686.1 436.521C686.1 434.994 686.1 433.466 686.1 431.939ZM709.023 544.957C709.023 543.429 709.023 543.429 709.023 544.957C698.325 517.464 689.159 489.975 683.044 462.482V460.955C683.044 459.427 681.517 457.9 679.989 457.9C676.934 456.376 673.879 454.849 670.819 453.321L655.539 445.683C654.011 445.683 654.011 445.683 652.483 444.155L654.011 450.266C657.066 457.9 660.126 467.065 661.653 474.703C664.709 486.92 667.764 500.664 667.764 514.408C667.764 517.464 667.764 520.519 667.764 522.047C667.764 525.102 669.291 528.157 670.819 529.685L699.853 563.284L701.38 564.811C701.38 564.811 702.912 564.811 702.912 563.284L710.55 551.067C709.023 548.012 709.023 546.484 709.023 544.957ZM730.414 546.484C724.303 555.646 718.193 564.811 713.605 575.5C712.078 577.028 712.078 578.556 712.078 580.083L710.55 607.576C710.55 609.099 710.55 610.627 710.55 612.155C710.55 613.682 710.55 613.682 712.078 615.21C713.605 613.682 713.605 612.155 713.605 612.155C716.661 604.521 719.72 596.883 722.775 590.772C722.775 589.249 724.303 587.721 724.303 586.194C725.831 573.973 728.886 561.756 731.945 549.539C731.945 548.012 731.945 548.012 731.945 546.484C730.414 546.484 730.414 546.484 730.414 546.484ZM938.23 577.028C955.043 549.539 967.264 520.519 974.906 488.448C979.489 465.538 984.076 442.628 985.604 418.194C987.131 399.867 985.604 380.013 984.076 361.685L976.434 305.176C974.906 292.955 973.378 280.739 971.851 268.518C971.851 260.884 971.851 254.774 971.851 247.14C971.851 244.085 973.378 242.557 971.851 239.502L970.323 241.029L968.796 242.557C959.625 260.884 945.873 277.684 932.12 294.483C930.592 297.538 927.537 299.066 926.009 302.121L880.168 350.992C866.415 366.264 854.19 381.536 843.492 398.34C835.854 410.556 829.739 422.773 823.629 436.521C823.629 438.049 822.101 439.572 822.101 441.1C828.211 439.572 832.794 436.521 838.909 434.994C843.492 431.939 848.075 430.411 854.19 427.356C854.19 428.883 854.19 428.883 854.19 430.411C851.134 434.994 848.075 441.1 845.02 447.211C843.492 450.266 843.492 451.793 841.964 453.321C837.381 460.955 834.322 470.12 834.322 479.282C832.794 489.975 832.794 499.137 834.322 509.83C834.322 512.885 834.322 515.936 834.322 518.991C834.322 535.791 835.854 551.067 835.854 567.867C835.854 580.083 835.854 592.3 834.322 604.521C834.322 609.099 832.794 612.155 831.267 616.737C831.267 618.265 831.267 619.793 831.267 622.848C831.267 628.954 832.794 635.065 832.794 641.175C832.794 642.703 832.794 642.703 834.322 644.23C835.854 642.703 835.854 642.703 835.854 641.175L841.964 628.954C848.075 616.737 852.662 604.521 858.772 592.3C858.772 590.772 860.3 589.249 860.3 589.249C860.3 587.721 860.3 586.194 860.3 584.666C854.19 572.445 852.662 558.701 851.134 544.957C851.134 541.901 851.134 540.374 851.134 537.318C851.134 523.574 851.134 509.83 852.662 497.609C854.19 483.865 857.245 470.12 860.3 456.376C860.3 456.376 860.3 456.376 861.828 454.849V456.376C860.3 476.227 861.828 496.081 864.887 515.936L872.525 557.173C872.525 558.701 872.525 560.228 874.053 563.284C875.581 561.756 875.581 560.228 875.581 558.701C878.636 552.59 880.168 544.957 883.223 538.846L893.916 502.192C895.448 499.137 893.916 496.081 893.916 493.03C892.389 485.392 889.333 479.282 887.806 471.648C886.278 465.538 884.751 460.955 884.751 454.849L883.223 424.301C883.223 410.556 883.223 395.284 884.751 381.54V380.012C884.751 380.012 884.751 380.013 884.751 381.54C886.278 398.34 889.333 415.139 892.389 431.939L898.503 460.955C898.503 462.482 900.031 462.482 900.031 464.01L906.142 441.1L910.729 419.718C912.256 412.084 913.784 404.446 915.312 398.34C916.839 390.702 918.367 384.591 921.422 376.957C921.422 378.485 921.422 380.013 921.422 381.54L922.95 416.667C922.95 427.356 922.95 436.522 922.95 447.211C922.95 454.849 921.422 462.482 919.894 470.12L918.367 480.809C918.367 482.337 918.367 482.337 918.367 483.865C919.894 483.865 919.894 482.337 921.422 482.337C933.647 471.648 944.345 460.955 951.983 448.738C956.57 441.1 961.153 433.466 965.736 425.828C965.736 424.301 965.736 422.773 967.264 422.773C967.264 424.301 967.264 425.828 967.264 425.828C964.208 434.994 961.153 444.155 956.57 453.321C951.983 465.538 944.345 477.754 936.703 488.448C930.592 496.081 924.482 502.192 915.312 506.775C912.256 508.302 910.729 509.83 909.197 512.885C904.614 531.212 898.503 548.012 892.389 566.339C892.389 567.867 892.389 567.867 892.389 569.394C893.916 570.917 893.916 569.394 895.448 569.394C898.503 566.339 901.559 563.284 903.086 560.228C907.669 555.646 912.256 549.539 916.839 544.957L948.928 508.302C953.515 502.192 958.098 496.081 961.153 489.975C961.153 489.975 961.153 489.975 962.681 489.975C962.681 491.503 962.681 491.503 962.681 493.03C959.625 499.137 958.098 505.247 955.043 509.83C945.873 526.629 936.703 543.429 926.009 560.228C918.367 572.445 907.669 583.138 895.448 590.772C892.389 592.3 889.333 593.827 886.278 595.355C884.75 595.355 883.223 596.883 881.695 596.883C870.998 621.32 860.3 645.758 848.075 668.664C849.602 670.191 849.602 668.664 851.134 668.664L867.942 657.975C870.998 656.447 874.053 653.392 877.108 651.864C881.695 647.281 881.695 647.281 883.223 641.175C884.751 633.537 886.278 625.903 886.278 616.737C886.278 615.21 886.278 613.682 887.806 612.155C889.333 615.21 890.861 619.793 892.389 622.848C893.916 625.903 893.916 630.482 895.448 635.065C896.976 633.537 898.503 633.537 898.503 632.009C909.201 615.21 926.009 596.883 938.23 577.028ZM832.794 688.518C835.854 693.101 849.602 711.428 854.19 714.484L855.717 712.956L858.772 696.156C860.3 691.574 861.828 685.463 863.355 680.884C863.355 679.357 863.355 679.357 863.355 677.829C858.772 679.357 857.245 680.884 852.662 682.412L841.964 686.991C840.437 686.991 835.854 686.991 832.794 688.518ZM890.861 801.536V786.264C890.861 784.737 890.861 783.209 889.333 783.209C887.806 781.681 887.806 780.154 886.278 778.626C880.168 769.465 875.581 760.299 874.053 749.61L872.525 743.5C872.525 745.027 872.525 746.555 870.998 746.555C870.998 757.248 870.998 767.937 874.053 778.626C874.053 780.154 875.581 781.681 875.581 783.209L890.861 801.536ZM880.168 801.536C881.695 812.23 889.333 829.029 895.448 833.612C896.976 829.029 895.448 822.919 892.389 818.336L883.223 804.591L880.168 801.536ZM913.784 825.974C915.312 835.139 915.312 842.773 918.367 850.411C918.367 850.411 918.367 850.411 919.894 851.939L921.422 850.411C924.482 847.356 927.537 842.773 929.064 838.19C932.12 830.557 933.647 821.391 935.175 813.757C936.703 803.064 936.703 792.375 936.703 781.681C936.703 780.154 936.703 780.154 936.703 778.626H935.175C935.175 780.154 933.647 780.154 933.647 781.681C932.12 790.847 929.064 798.481 924.482 806.119C921.422 810.702 918.367 816.808 915.312 821.391C915.312 821.391 913.784 824.446 913.784 825.974ZM909.197 761.827C910.729 760.299 910.729 757.248 912.256 755.721C912.256 754.193 913.784 752.665 913.784 749.61C913.784 748.082 915.312 746.555 915.312 743.5C915.312 741.972 916.839 738.921 916.839 737.393C916.839 735.866 916.839 732.811 916.839 731.283C918.367 734.338 918.367 735.866 918.367 738.921C918.367 752.665 915.312 767.937 909.197 780.154C909.197 781.681 907.669 784.737 909.197 786.264C910.729 792.375 910.729 798.481 912.256 804.591V806.119C913.784 806.119 913.784 806.119 913.784 804.591C921.422 793.902 927.537 783.209 932.12 772.52C933.647 770.992 933.647 767.937 932.12 766.41C927.537 741.972 919.894 719.066 906.142 699.212C898.503 688.518 890.861 676.302 886.278 664.085C886.278 664.085 886.278 662.557 884.751 662.557C884.751 662.557 884.751 662.557 883.223 661.03C880.168 661.03 880.168 662.557 880.168 665.608C880.168 670.191 878.636 673.246 878.636 677.829C877.108 688.518 875.581 699.212 874.053 708.373C872.525 714.483 872.525 722.117 870.998 728.228C870.998 731.283 870.998 732.811 872.525 735.866C877.108 746.555 881.695 755.721 887.806 764.882C887.806 766.41 889.333 766.41 889.333 766.41C889.333 764.882 889.333 763.354 889.333 763.354L890.861 729.755C890.861 725.172 890.861 720.594 892.389 716.011C892.389 714.483 892.389 712.956 893.916 711.428L903.086 769.465C907.669 764.882 907.669 763.354 909.197 761.827ZM681.517 871.794L669.292 879.428L647.901 894.699L621.922 913.027C617.339 916.082 611.225 919.137 605.114 922.192L603.587 923.72L605.114 925.248L657.066 938.992C667.764 942.047 679.989 943.575 692.214 946.63C693.742 946.63 696.797 946.63 698.325 948.157C722.775 949.681 748.754 948.157 773.2 943.575C799.178 938.992 822.101 929.83 846.547 919.137L864.887 911.499C872.525 908.448 880.168 903.865 886.278 897.755L896.976 888.593L898.503 887.066C896.976 887.066 896.976 887.066 895.448 887.066C881.695 885.538 867.942 882.483 854.19 882.483C845.02 882.483 835.854 882.483 826.684 882.483C823.628 882.483 822.101 884.01 820.573 885.538C806.82 900.81 791.54 909.976 773.2 919.137C760.975 925.248 748.754 929.83 736.528 932.881C733.473 934.409 730.414 934.409 727.358 935.936C725.831 935.936 725.831 935.936 724.303 935.936C750.281 922.192 774.727 906.921 794.595 885.538C794.595 884.01 793.068 884.01 791.54 884.01L751.809 888.593C748.754 888.593 747.226 890.121 745.694 891.649C742.639 894.699 739.584 897.755 736.528 899.282C722.775 909.976 707.495 920.665 690.687 926.775C684.572 929.83 678.461 931.354 672.347 932.881C672.347 931.354 672.347 931.354 673.879 931.354C690.687 922.192 704.44 908.448 718.193 896.227L719.72 894.699C715.133 894.699 712.078 894.699 695.27 897.755C687.632 899.282 678.461 900.81 670.819 903.865C663.181 906.92 655.539 908.448 647.901 911.499L649.428 909.976C650.956 908.448 652.483 908.448 654.011 906.92C670.819 896.227 689.159 887.066 707.495 879.428C709.023 879.428 710.55 877.9 713.605 877.9C712.078 877.9 712.078 876.372 710.55 876.372L686.1 871.794C686.1 870.266 683.044 871.794 681.517 871.794ZM742.639 847.356C727.358 851.939 712.078 856.518 698.325 862.628C696.797 862.628 696.797 864.156 696.797 864.156C696.797 864.156 696.797 864.156 696.797 865.683H699.853C715.133 865.683 728.886 865.683 744.166 868.739C745.694 868.739 748.754 868.739 750.281 868.739L782.37 864.156C783.897 864.156 785.425 864.156 786.953 862.628C785.425 861.1 783.897 861.1 782.37 859.573C771.672 854.99 759.447 850.411 748.754 847.356C745.694 847.356 744.166 847.356 742.639 847.356ZM793.068 844.301C783.897 844.301 774.727 844.301 767.089 844.301C764.034 844.301 760.975 844.301 759.447 845.828L767.089 847.356C776.259 848.884 785.425 850.411 793.068 853.467C797.65 854.99 803.761 858.045 808.348 859.573C811.403 861.1 814.458 861.1 817.514 861.1C829.739 861.1 841.964 859.573 854.19 861.1L869.47 862.628C870.998 862.628 872.525 862.628 874.053 862.628C874.053 861.1 872.525 861.1 870.998 861.1C846.547 851.939 820.573 845.829 793.068 844.301ZM846.547 803.064C849.602 806.119 852.662 806.119 855.717 803.064C857.245 803.064 857.245 801.536 857.245 801.536C857.245 800.009 858.772 800.009 858.772 798.481C858.772 795.43 854.19 790.847 851.134 790.847C846.547 790.847 843.492 792.375 843.492 796.958C843.492 800.009 843.492 801.536 846.547 803.064ZM829.739 781.681C831.267 781.681 832.794 781.681 832.794 781.681C843.492 781.681 849.602 772.52 845.02 763.354C843.492 758.776 838.909 755.721 834.322 754.193C829.739 752.665 823.628 754.193 820.573 757.248C817.514 758.776 815.986 763.354 817.514 766.41C817.514 775.575 822.101 780.154 829.739 781.681ZM721.248 720.594L722.775 722.117C750.281 734.338 776.259 748.082 802.233 763.354C802.233 763.354 802.233 763.354 803.761 763.354C805.288 758.776 806.82 752.665 809.876 749.61C812.931 746.555 819.041 743.5 823.629 743.5C823.629 741.972 822.101 740.449 822.101 740.449C817.514 734.338 811.403 728.228 806.82 722.117C800.706 714.483 796.123 705.318 790.008 697.684C788.48 696.156 788.48 694.629 786.953 693.101C783.897 696.156 780.842 697.684 777.787 700.739C774.727 703.79 771.672 705.318 767.089 706.845C764.034 708.373 759.447 711.428 756.392 712.956C753.336 714.483 748.754 716.011 745.694 717.539C741.111 719.066 738.056 719.066 733.473 720.594C727.358 719.066 724.303 719.066 721.248 720.594C719.72 720.594 719.72 720.594 721.248 720.594ZM702.912 705.318C704.44 705.318 704.44 705.318 705.967 705.318C719.72 703.79 731.945 700.739 744.166 696.156C754.864 691.574 765.562 685.463 773.2 677.829C791.54 659.502 803.761 638.12 808.348 613.682C811.403 602.993 812.931 592.3 814.458 581.611C814.458 577.028 814.458 572.445 814.458 567.867V502.192C814.458 497.609 814.458 491.503 814.458 486.92C814.458 476.227 817.514 467.065 823.629 457.9C823.629 456.376 825.156 454.849 826.684 453.321C825.156 453.321 825.156 454.849 823.629 454.849C803.761 467.065 785.425 480.81 770.145 499.137C762.506 508.302 754.864 517.464 747.226 526.629C745.694 528.157 745.694 529.685 744.166 531.212C741.111 540.374 739.584 551.067 739.584 560.228C741.111 561.756 741.111 560.228 742.639 558.701C753.336 544.957 765.562 534.263 777.787 523.574C779.315 522.047 779.315 522.047 780.842 522.047C780.842 523.574 780.842 525.102 779.315 525.102L765.562 544.957C759.447 554.118 754.864 563.284 750.281 572.445C750.281 573.973 748.754 575.5 748.754 578.556C753.336 578.556 757.919 577.028 760.975 575.5C765.562 573.973 768.617 572.445 773.2 570.917C777.787 569.394 780.842 567.867 783.897 564.811C788.48 563.284 791.54 560.228 794.595 558.701C797.65 555.646 800.706 554.118 803.761 551.067C805.288 552.59 803.761 552.59 803.761 552.59C797.65 560.228 790.008 567.867 782.37 573.973C771.672 581.611 760.975 587.721 748.754 593.827C747.226 595.355 744.166 595.355 742.639 596.883C741.111 596.883 739.584 598.41 738.056 601.466L730.414 621.32L727.358 628.954C727.358 630.482 727.358 630.482 727.358 632.009H728.886C744.166 627.426 760.975 621.32 774.727 613.682C779.315 610.627 782.37 609.099 786.953 604.521C788.48 606.048 786.953 607.576 785.425 607.576C782.37 612.155 777.787 615.21 773.2 619.793C767.089 625.903 759.447 632.009 751.809 636.592C745.694 641.175 738.056 644.23 730.414 648.809C725.831 650.336 722.775 651.864 718.193 653.392C718.193 654.919 716.661 654.919 716.661 656.447C713.605 667.136 710.55 677.829 707.495 688.518C705.967 693.101 704.44 697.684 702.912 702.267C702.912 702.267 701.38 703.79 702.912 705.318ZM689.159 670.191V671.719H690.687C690.687 670.191 692.214 668.664 692.214 665.608L699.853 644.23C701.38 641.175 701.38 638.12 701.38 635.065C701.38 624.376 701.38 613.682 702.912 602.993C702.912 601.466 702.912 601.466 702.912 599.938C701.38 601.466 701.38 602.993 701.38 604.521C698.325 613.682 695.27 622.848 693.742 632.009L692.214 641.175C689.159 650.336 689.159 661.03 689.159 670.191ZM684.572 596.883C686.1 595.355 687.632 592.3 687.632 590.772C687.632 589.249 689.159 586.194 690.687 584.666C686.1 577.028 669.291 558.701 666.236 555.646L661.653 586.194C666.236 587.721 669.292 589.249 673.879 592.3L684.572 596.883ZM678.462 616.737C675.406 613.682 670.819 613.682 667.764 612.155C664.709 610.627 661.653 609.099 657.066 607.576C657.066 607.576 655.539 609.099 655.539 610.627C654.011 616.737 652.483 622.848 650.956 630.482C650.956 632.009 650.956 632.009 650.956 633.537C655.539 635.065 667.764 636.592 673.879 636.592C675.406 628.954 676.934 622.848 678.462 616.737ZM666.236 683.94C663.181 683.94 661.653 686.991 661.653 690.046C661.653 691.574 663.181 693.101 663.181 694.629C664.709 696.156 666.236 696.156 667.764 696.156C669.291 696.156 670.819 694.629 670.819 693.101V691.574C672.347 686.991 670.819 683.94 666.236 683.94ZM533.294 699.212C507.316 702.267 482.87 706.845 458.42 714.484C443.139 719.066 427.858 723.645 414.106 729.755C394.241 737.393 377.432 748.082 360.623 761.827C351.455 769.465 340.758 777.103 331.59 784.737C314.781 800.009 296.445 813.757 278.108 827.501L267.411 835.139C249.074 848.884 229.21 858.045 206.289 864.156C204.761 864.156 203.232 864.156 201.704 865.683C203.232 865.683 206.289 867.211 207.817 867.211C220.041 868.738 232.266 870.266 244.49 873.321C252.131 874.845 259.771 877.9 267.411 879.428C288.804 885.538 310.197 891.649 331.59 896.227C352.983 900.81 374.376 903.865 397.297 905.393C414.106 906.92 432.441 905.393 449.25 900.81C473.7 896.227 498.151 888.593 521.069 876.372C530.239 871.794 540.937 865.683 548.575 858.045C565.383 842.773 580.664 825.974 594.417 806.119C599.004 800.009 602.059 793.902 606.642 787.792C612.752 780.154 617.339 770.993 623.45 763.354C635.675 748.082 649.428 732.811 666.236 722.117C667.764 722.117 667.764 720.594 669.292 720.594C669.292 719.066 667.764 719.066 666.236 719.066C661.653 719.066 657.066 719.066 652.483 720.594L621.922 725.172C618.867 725.172 617.339 726.7 617.339 728.228C617.339 729.755 615.812 731.283 615.812 732.811C606.642 746.555 597.472 760.299 586.778 772.52C580.664 778.631 574.553 784.737 568.438 790.847C556.217 801.536 543.992 812.229 530.239 819.863C530.239 819.863 528.712 819.863 528.712 821.391C528.712 819.863 528.712 819.863 530.239 819.863C543.992 807.647 556.217 793.902 566.911 778.626L579.136 760.299L595.944 735.866C597.472 734.338 597.472 732.811 599.004 731.283C597.472 731.283 597.472 731.283 595.944 731.283C583.719 734.338 569.97 737.394 557.745 741.972C556.217 741.972 554.69 743.5 554.69 745.027C551.63 752.665 547.047 760.299 540.937 766.41C533.294 777.103 524.124 787.792 514.959 798.481C513.431 800.009 511.904 801.536 510.376 803.064C492.036 819.863 472.172 835.14 449.25 844.301C446.194 845.829 444.667 845.828 441.611 847.356V845.828C455.364 838.19 466.062 827.501 476.755 816.808C482.87 810.702 488.981 803.064 495.091 795.43C499.678 790.847 502.733 784.737 507.316 780.154L527.184 755.721C528.712 754.193 528.712 752.665 530.239 751.138C528.712 749.61 527.184 751.138 525.656 751.138L481.342 767.937C472.172 770.993 463.002 775.575 453.837 780.154C450.777 781.681 449.25 783.209 447.722 786.264C443.139 801.536 433.969 815.285 421.746 825.974C407.993 838.191 392.713 848.884 375.904 858.045C371.32 861.1 366.736 862.628 363.68 865.683C363.68 864.156 365.208 864.156 365.208 862.628C375.904 853.467 386.601 844.301 395.769 833.612C403.409 825.974 409.522 818.336 415.634 809.174L424.802 796.958C424.802 795.43 426.33 793.902 426.33 793.902C424.802 793.902 423.274 795.43 423.274 795.43L411.05 801.536C392.713 810.702 374.376 818.336 356.039 824.446C348.399 827.501 339.23 829.029 331.59 830.557C328.534 830.557 323.95 832.084 319.366 830.557H322.422C328.534 830.557 334.646 827.501 340.758 825.974C348.399 822.919 356.039 818.336 362.151 813.757C366.736 810.702 371.32 807.647 375.904 804.591C386.601 796.958 395.769 790.847 407.993 784.737C409.522 783.209 411.05 783.209 412.578 781.681C411.05 781.681 409.522 781.681 407.993 781.681C386.6 780.154 365.208 781.681 345.343 786.264C343.815 786.264 342.287 787.792 340.758 787.792C340.758 786.264 343.815 784.737 345.343 784.737C366.736 775.575 389.657 770.993 412.578 767.937C420.218 766.41 427.858 766.41 435.497 769.465C438.556 770.993 441.611 769.465 444.667 767.937C466.062 757.248 488.981 748.082 511.904 738.921C513.431 738.921 514.959 738.921 516.486 735.866C514.959 735.866 514.959 735.866 513.431 735.866C510.376 735.866 505.789 735.866 502.733 735.866H466.062C449.25 735.866 433.969 737.394 418.69 740.449C415.634 740.449 412.578 741.972 409.522 741.972C411.05 740.449 412.578 740.449 414.106 738.921C430.914 732.811 446.194 728.228 463.002 723.645C469.117 722.117 476.755 720.594 484.398 719.066C499.678 716.011 514.959 716.011 530.239 719.066C534.822 720.594 539.405 722.117 543.992 723.645C545.52 725.172 548.575 725.172 550.103 723.645C562.328 719.066 573.026 716.011 585.251 712.956C586.778 712.956 586.778 712.956 586.778 711.428L585.251 709.901C573.026 705.318 559.273 700.739 545.52 697.684C539.405 699.212 536.35 699.212 533.294 699.212ZM504.261 609.099C508.844 618.265 518.014 630.482 521.069 635.065C525.656 632.009 530.239 627.426 536.35 624.376C536.35 622.848 534.822 622.848 534.822 621.32C533.294 621.32 533.294 619.793 531.767 619.793C524.124 615.21 514.959 610.627 507.316 607.576C505.789 607.576 505.789 606.048 504.261 606.048C504.261 607.576 504.261 609.099 504.261 609.099ZM513.431 589.249C513.431 587.721 513.431 586.194 513.431 586.194C507.316 573.973 502.733 560.228 501.206 546.484C499.678 538.846 499.678 531.212 498.151 523.574V518.991L463.002 493.03C461.475 493.03 463.002 494.558 463.002 496.081C464.53 509.83 464.53 523.574 464.53 538.846C464.53 543.429 464.53 546.484 464.53 551.067C464.53 552.59 464.53 555.646 466.062 557.173L478.283 567.867L479.811 569.394C479.811 567.867 479.811 567.867 479.811 566.339L481.342 551.067C481.342 549.539 482.87 546.484 482.87 544.957C482.87 554.118 484.398 561.756 485.925 569.394C485.925 570.917 487.453 573.973 487.453 575.5C487.453 577.028 488.981 578.556 490.508 578.556C498.151 580.083 505.789 584.666 513.431 589.249ZM493.563 628.954C493.563 627.431 493.563 627.426 493.563 625.903C488.981 616.737 487.453 607.576 485.925 596.883C485.925 593.827 484.398 590.772 481.342 589.249C476.755 584.666 470.645 581.611 466.062 577.028H463.002C461.475 577.028 461.475 578.556 461.475 578.556C461.475 583.138 461.475 587.721 461.475 592.3C461.475 598.41 459.947 604.521 458.42 610.627C456.892 613.682 456.892 616.737 456.892 619.793C463.002 621.32 488.981 628.954 493.563 628.954ZM447.722 428.883C453.837 445.683 456.892 464.01 459.947 480.809C459.947 480.809 459.947 480.81 459.947 482.337C459.947 483.865 461.475 485.392 463.002 486.92L488.981 499.137C492.036 500.664 493.563 500.664 498.151 502.192C498.151 489.975 499.678 479.282 499.678 468.593C501.206 457.9 502.733 447.21 504.261 436.521C502.733 434.994 501.206 434.994 498.151 434.994C485.925 431.939 475.228 430.411 463.002 428.883L450.777 427.356C449.25 427.356 449.25 427.356 447.722 427.356C446.194 425.828 447.722 427.356 447.722 428.883ZM406.465 529.685C409.522 526.629 412.578 522.047 414.106 517.464C417.162 512.885 418.69 508.302 420.218 503.72C421.746 499.137 423.274 494.558 424.802 489.975C426.33 485.392 427.858 480.81 429.386 476.227V477.754C429.386 489.975 427.858 500.664 424.802 512.885C423.274 522.047 418.69 531.212 414.106 538.846C412.578 540.374 412.578 541.901 411.05 543.429C409.522 544.957 409.522 546.484 409.522 548.012C411.05 552.59 412.578 555.646 414.106 560.228C418.69 570.918 423.274 580.083 429.386 590.772C430.914 595.355 433.969 599.938 437.029 602.993C438.556 602.993 438.556 601.466 438.556 601.466C437.029 586.194 438.556 570.917 440.084 557.173C441.611 541.901 441.611 528.157 441.611 512.885C440.084 493.03 437.029 473.176 432.441 453.321C430.914 447.211 429.386 441.1 426.33 434.994C417.162 412.084 404.937 389.174 389.657 369.319C372.848 346.409 351.455 326.554 328.534 308.227C314.781 297.538 302.557 288.373 288.804 277.684C288.804 277.684 287.276 277.684 285.748 276.156C285.748 277.684 285.748 277.684 285.748 279.211C293.388 299.066 297.973 320.448 304.085 341.831L320.894 404.446C323.95 415.139 327.006 425.828 331.59 436.521C333.118 439.572 334.646 442.628 336.174 444.155C340.759 450.266 345.343 454.849 351.455 459.427L363.68 470.12C365.208 470.12 365.208 471.648 366.736 471.648C366.736 470.12 366.736 470.121 366.736 468.593C366.736 460.955 365.208 451.793 365.208 444.155C365.208 430.411 363.68 418.194 362.151 404.446L365.208 395.284C365.208 392.229 365.208 389.174 363.68 386.119C363.68 386.119 363.68 384.591 363.68 383.063C365.208 384.591 365.208 384.591 365.208 384.591C366.736 387.646 366.736 389.174 368.264 392.229C375.904 416.667 382.016 442.628 389.657 467.065V468.593C391.185 468.593 391.185 467.065 391.185 467.065C398.825 451.793 406.465 434.994 411.05 416.667V415.139C411.05 421.245 409.522 428.883 409.522 434.994C407.993 447.21 404.937 459.427 401.881 471.648C400.353 479.282 398.825 479.282 394.241 488.448C397.297 499.137 404.937 525.102 406.465 529.685ZM398.825 627.426C400.353 627.426 403.409 625.903 404.937 625.903C401.881 625.903 400.353 625.903 398.825 624.376C383.544 622.848 368.264 622.848 351.455 624.376C319.366 628.954 288.804 635.065 259.771 648.809C258.243 648.809 258.243 648.809 256.715 650.336C258.243 650.336 261.299 650.336 262.827 650.336C271.996 648.809 279.636 648.809 288.804 648.809C296.445 648.809 304.085 650.336 311.725 653.392C314.781 654.919 316.31 654.919 319.366 653.392L351.455 641.175C366.736 635.065 382.016 630.482 398.825 627.426ZM311.725 694.629C313.253 694.629 313.253 693.101 314.781 693.101C336.174 677.829 362.152 659.502 365.208 654.919H363.68C351.455 659.502 340.759 662.557 328.534 667.136C327.006 667.136 325.478 668.664 325.478 670.191C322.422 677.829 317.838 683.94 313.253 691.574C311.725 693.101 311.725 693.101 311.725 694.629ZM15.2807 780.154C30.5613 783.209 45.8419 784.737 61.1225 784.737H64.1786C94.74 786.264 123.773 781.681 152.806 774.048C174.2 767.937 194.064 760.299 213.929 751.138C235.322 740.449 255.187 729.755 276.58 717.539C284.22 712.956 282.692 714.483 287.276 706.845C291.86 699.212 296.444 690.046 301.029 680.884C301.029 679.357 301.029 679.357 302.557 677.829C301.029 677.829 299.501 679.357 297.973 679.357C287.276 683.935 276.58 688.518 265.883 694.629C264.355 694.629 262.827 696.156 261.299 696.156C256.715 697.684 252.131 700.739 250.603 706.845C250.603 708.373 249.074 709.901 247.546 709.901C233.794 726.7 218.513 740.449 198.648 748.082C197.12 748.082 197.12 749.61 197.12 749.61C197.12 749.61 197.12 748.082 198.648 748.082C200.176 746.555 201.704 746.555 201.704 745.027C212.401 737.393 221.57 728.228 227.682 716.011V714.484C227.682 714.484 227.682 714.483 227.682 712.956C223.098 712.956 220.041 716.011 215.457 717.539C210.873 719.066 207.817 720.594 203.232 722.117L191.008 726.7C186.424 728.228 183.368 729.755 178.784 732.811L166.559 738.921C163.503 740.449 158.919 743.5 154.334 745.027C155.862 741.972 158.919 740.449 161.975 738.921C178.784 726.7 195.592 716.011 212.401 705.318C213.929 703.79 215.457 703.79 216.985 702.267C216.985 702.267 216.985 702.267 216.985 700.739C215.457 700.739 213.929 700.739 213.929 700.739C204.761 700.739 197.12 700.739 187.952 700.739L171.143 702.267C169.615 702.267 169.615 702.267 168.087 702.267V700.739C181.84 696.156 194.064 691.574 209.345 688.518C215.457 686.991 221.57 686.991 227.682 686.991C230.738 686.991 235.322 686.991 238.378 688.518C239.906 688.518 242.962 688.518 244.49 688.518C247.546 686.991 250.603 685.463 253.659 683.94C264.355 677.829 276.58 673.246 287.276 667.136C288.804 667.136 288.804 665.608 290.332 665.608C290.332 664.085 288.804 664.085 288.804 664.085C279.636 662.557 271.996 661.03 262.827 659.502C256.715 659.502 249.074 659.502 242.962 657.975C239.906 657.975 236.85 657.975 235.322 659.502C207.817 673.246 180.312 685.463 155.862 702.267L134.47 714.484C125.301 720.594 116.133 725.172 108.492 731.283C96.2681 738.921 84.0436 746.555 71.8192 754.193C56.5383 763.354 41.2577 769.465 24.4491 775.575C21.3929 777.103 19.8649 777.103 16.8087 777.103C15.2807 777.103 15.2807 778.631 15.2807 780.154C15.2807 780.154 13.7526 780.154 15.2807 780.154Z" fill="#0F2D52"/>
</svg>
